<svg width="240" height="240" viewBox="0 0 240 240" fill="none" xmlns="http://www.w3.org/2000/svg">
<path d="M46.8571 240C30.8571 240 22.8571 229.63 22.8571 208.889C22.8571 198.683 24.7619 184.198 28.5714 165.432L48 63.7037C49.5238 51.8518 50.2857 45.1029 50.2857 43.4568C50.2857 38.5185 48.7619 36.0494 45.7143 36.0494C36.9524 36.0494 26.6667 45.9259 14.8571 65.679C14.0952 66.9959 12.7619 69.3004 10.8571 72.5926C9.33333 75.5555 8 77.5309 6.85714 78.5185C5.71428 79.1769 4.57143 79.5062 3.42857 79.5062C2.66667 79.5062 1.90476 79.0123 1.14286 78.0247C0.380952 76.7078 0 75.2263 0 73.5802C0 66.9959 3.80952 57.7778 11.4286 45.9259C19.4286 33.7449 29.1429 23.0453 40.5714 13.8272C52 4.60905 62.8571 0 73.1428 0C79.2381 0 84 2.30453 87.4286 6.91358C91.2381 11.1934 93.1429 17.1193 93.1429 24.6913C93.1429 29.6296 92.7619 33.4156 92 36.0494L65.1429 181.728C64.381 186.337 64 189.3 64 190.617C64 197.531 67.0476 200.988 73.1428 200.988C85.7143 200.988 99.2381 193.745 113.714 179.259C128.571 164.444 141.524 146.831 152.571 126.42C164 106.008 171.429 88.0658 174.857 72.5926L182.857 36.5432C185.905 24.6914 192 15.6379 201.143 9.38271C210.667 3.12757 219.429 0 227.429 0C230.476 0 232 0.823044 232 2.46913C232 3.45678 231.238 5.43209 229.714 8.39506C228.19 11.0288 227.048 14.321 226.286 18.2716C220.952 38.6831 210.476 86.0905 194.857 160.494L191.429 176.296C188.762 187.819 187.429 194.897 187.429 197.531C187.429 202.14 189.143 204.444 192.571 204.444C198.667 204.444 205.333 200.329 212.571 192.099C220.19 183.539 226.286 174.321 230.857 164.444C233.143 160.823 235.048 159.012 236.571 159.012C238.857 159.012 240 160.494 240 163.457C240 167.078 239.619 170.206 238.857 172.839C236.19 184.691 230.857 195.72 222.857 205.926C214.857 216.132 205.905 224.362 196 230.617C186.095 236.872 176.952 240 168.571 240C153.714 240 146.667 229.794 147.429 209.383C148.19 200.494 150.476 188.477 154.286 173.333L159.429 149.136H158.857C139.048 176.461 118.857 198.519 98.2857 215.309C77.7143 231.77 60.5714 240 46.8571 240Z" fill="white"/>
</svg>
